<svg xmlns="http://www.w3.org/2000/svg" viewBox="0 0 132 132"><defs><style>.cls-1{fill:none;}.cls-2{fill:#fff;}.cls-3{fill:#dd3330;}</style></defs><g id="Layer_2" data-name="Layer 2"><g id="Layer_1-2" data-name="Layer 1"><rect class="cls-1" width="132" height="132"/><path class="cls-2" d="M46.61,29.63c8,0,16.68,4.27,18.17,14.37H55.06c-1.38-3.84-4.31-5.57-8.45-5.57C40.81,38.43,37,42.7,37,49c0,5.57,3.76,10.43,9.61,10.48,4.2,0,7.57-2.05,8.62-6.1H65c-1.44,10.7-10.11,14.91-18.34,14.91-9.83,0-19.77-6.43-19.83-19.29S36.78,29.63,46.61,29.63Z"/><path class="cls-3" d="M86.33,67.88H71.75V30.06H86.33C111.52,30.17,111.52,67.77,86.33,67.88Zm-4.7-8.81h4.7c12.32,0,12.32-20.2,0-20.2h-4.7Z"/><path class="cls-2" d="M31,81.94l9.53,20.43H38.31L35.1,95.65H26.29l-3.18,6.72H20.83l9.66-20.43Zm-.26,4.34-3.5,7.4h7Z"/><path class="cls-2" d="M43.21,81.94H54.92v2H45.26v6.4h9.58v2H45.26v8h9.58v2H43.21Z"/><path class="cls-2" d="M58.08,81.94h4.07a24.14,24.14,0,0,1,4.61.28,5.21,5.21,0,0,1,3,1.78,5.12,5.12,0,0,1,1.14,3.38,5.46,5.46,0,0,1-.78,2.93,4.91,4.91,0,0,1-2.25,1.91,10,10,0,0,1-4,.66l7.35,9.49H68.63l-7.35-9.49H60.12v9.49h-2Zm2,2v6.94l3.52,0a8.75,8.75,0,0,0,3-.39,3.18,3.18,0,0,0,1.53-1.24,3.44,3.44,0,0,0,.55-1.91,3.32,3.32,0,0,0-.56-1.87,3.1,3.1,0,0,0-1.46-1.2,8.86,8.86,0,0,0-3-.36Z"/><path class="cls-2" d="M74.46,81.94h2v20.43h-2Z"/><path class="cls-2" d="M89.05,81.94l9.53,20.43H96.37l-3.21-6.72h-8.8l-3.19,6.72H78.9l9.65-20.43Zm-.26,4.34-3.5,7.4h7Z"/><path class="cls-2" d="M101.26,81.94h2V100.4h7.87v2h-9.91Z"/></g></g></svg>